PathFileType  4	(X/Y/Z) C:\Users\antoi\Documents\MyRepositories\mobilecap\ResultsAnalysis
DataRate	CameraRate	NumFrames	NumMarkers	Units	OrigDataRate	OrigDataStartFrame	OrigNumFrames
100.0	100.0	4	51	mm	100.0	34	271
Frame#	Time	r_knee			r_shank_antsup			r_ankle			r_calc			r_5meta			r_toe			L_knee			L_shank_antsup			L_ankle			L_calc			L_5meta			L_toe			r_sh2			r_sh3			r_sh4			L_sh2			L_sh3			r_thigh1			r_thigh2			r_thigh3			r_thigh4			r_thigh5			L_thigh1			L_thigh2			L_thigh3			L_thigh4			r.ASIS			r.PSIS			L.ASIS			L.PSIS			C7			R_Shoulder			L_Shoulder			R_Sternum			L_Sternum			R_humerus			R_elbow_med			R_elbow_lat			R_forearm			R_wrist_radius			R_wrist_ulna			L_humerus			L_elbow_med			L_elbow_lat			L_forearm			L_wrist_radius			L_wrist_ulna			R_HJC			L_HJC			R_HJC_reg			L_HJC_reg			
		X1	Y1	Z1	X2	Y2	Z2	X3	Y3	Z3	X4	Y4	Z4	X5	Y5	Z5	X6	Y6	Z6	X7	Y7	Z7	X8	Y8	Z8	X9	Y9	Z9	X10	Y10	Z10	X11	Y11	Z11	X12	Y12	Z12	X13	Y13	Z13	X14	Y14	Z14	X15	Y15	Z15	X16	Y16	Z16	X17	Y17	Z17	X18	Y18	Z18	X19	Y19	Z19	X20	Y20	Z20	X21	Y21	Z21	X22	Y22	Z22	X23	Y23	Z23	X24	Y24	Z24	X25	Y25	Z25	X26	Y26	Z26	X27	Y27	Z27	X28	Y28	Z28	X29	Y29	Z29	X30	Y30	Z30	X31	Y31	Z31	X32	Y32	Z32	X33	Y33	Z33	X34	Y34	Z34	X35	Y35	Z35	X36	Y36	Z36	X37	Y37	Z37	X38	Y38	Z38	X39	Y39	Z39	X40	Y40	Z40	X41	Y41	Z41	X42	Y42	Z42	X43	Y43	Z43	X44	Y44	Z44	X45	Y45	Z45	X46	Y46	Z46	X47	Y47	Z47	X48	Y48	Z48	X49	Y49	Z49	X50	Y50	Z50	X51	Y51	Z51	

34	0.33000000	-1162.07119	794.91901	-439.10114	-1194.32179	751.40738	-410.51997	-1266.35213	406.39712	-471.48302	-1324.03116	363.94783	-527.02978	-1149.75876	348.46766	-425.52710	-1104.15734	371.01327	-476.71105	-1165.30188	791.03960	-737.60331	-1149.36380	701.53377	-747.41439	-1271.91823	404.92589	-709.81976	-1333.68091	365.56279	-657.60377	-1157.92535	352.43715	-740.57115	-1111.85280	370.97297	-687.58585	-1217.09331	638.01722	-408.89668	-1126.54761	741.95064	-447.85344	-1152.35147	629.94282	-462.83208	-1231.27643	731.73566	-762.30855	-1260.75782	613.16382	-757.34088	-1110.87303	1095.73584	-493.11185	-1089.08574	986.19427	-484.80746	-1103.68616	965.14528	-421.53113	-1168.88912	1090.18895	-397.61750	-1152.47077	976.83976	-395.33473	-1160.11294	1115.95998	-762.60032	-1144.30743	973.84768	-768.55955	-1271.48552	1101.91739	-768.40317	-1258.33190	962.14013	-745.07410	-1135.92647	1265.50505	-462.14634	-1325.70902	1304.83730	-538.76961	-1136.59276	1247.64457	-696.16850	-1327.33287	1304.15166	-635.35718	-1208.33440	1773.11148	-604.52258	-1154.68225	1734.86117	-444.67825	-1163.27381	1716.94027	-765.15992	-1118.14913	1659.24874	-588.76531	-1114.73406	1656.70833	-622.82052	-1178.23070	1504.98287	-351.90749	-1254.66576	1416.26848	-366.56440	-1205.00922	1419.45087	-319.38894	-1097.25456	1337.84253	-374.60835	-1028.77112	1289.49262	-436.58554	-1037.75144	1260.54376	-403.48957	-1203.04845	1487.54943	-840.22370	-1262.91942	1385.48473	-797.79360	-1239.54699	1388.37637	-857.51669	-1124.98161	1295.76871	-838.31748	-1046.37401	1233.82638	-793.39877	-1070.48928	1203.49893	-815.26419	-1215.41024	1186.23815	-492.40472	-1227.07258	1184.36366	-682.71101	-1207.44695	1189.44113	-492.71838	-1210.05164	1188.34147	-647.59487	
35	0.34000000	-1159.51450	794.00706	-439.44318	-1191.49937	750.84342	-410.82734	-1266.19047	406.18538	-471.68170	-1324.01984	363.89813	-527.05888	-1149.79417	348.45987	-425.65575	-1104.12638	371.03000	-476.73874	-1163.68327	790.28492	-737.44053	-1147.80649	700.78190	-747.28244	-1271.83990	404.82713	-709.76644	-1333.66908	365.52059	-657.63634	-1157.92735	352.42626	-740.55879	-1111.71741	371.03238	-687.54989	-1214.95132	637.84803	-409.18809	-1123.91811	740.84297	-448.28065	-1150.53093	629.03303	-463.25639	-1229.44338	731.39319	-762.29538	-1259.64888	613.09849	-757.29465	-1112.01480	1094.95011	-493.98639	-1088.62193	986.01181	-485.14598	-1102.81289	964.67185	-421.91787	-1169.34243	1089.10531	-397.65027	-1151.74797	975.94538	-395.43363	-1161.84613	1115.01226	-762.59268	-1144.95631	973.10612	-768.89078	-1273.29097	1099.83757	-767.68157	-1258.55617	960.39487	-744.83643	-1137.37669	1263.42876	-462.21999	-1327.03003	1304.27768	-538.49657	-1136.93905	1246.78028	-696.01452	-1328.87310	1303.66811	-634.92267	-1204.78064	1771.52745	-604.49491	-1150.63176	1733.24516	-444.73253	-1160.08021	1715.04950	-765.10660	-1115.34554	1656.84821	-588.89656	-1111.69711	1654.39620	-622.71895	-1176.37014	1503.93966	-351.41964	-1253.46275	1415.63378	-366.15545	-1203.96845	1418.58302	-318.89923	-1096.66628	1336.16613	-373.84580	-1028.27701	1287.49305	-435.41147	-1037.50563	1258.49953	-402.42053	-1201.15387	1486.08312	-840.21877	-1261.32176	1384.25470	-797.70783	-1238.16658	1387.04781	-857.43529	-1124.27601	1293.42837	-838.79560	-1045.79904	1231.05495	-794.37693	-1070.36374	1200.78996	-816.16162	-1217.06435	1184.72660	-492.66432	-1228.42442	1183.85687	-682.99246	-1208.82329	1188.59566	-492.65913	-1211.77910	1187.61765	-647.32846	
36	0.35000000	-1157.10150	793.09103	-439.98413	-1188.83700	750.16178	-411.07943	-1266.03950	405.99716	-471.83813	-1324.02504	363.83033	-527.09039	-1149.71861	348.65460	-425.58731	-1104.18689	371.04197	-476.87286	-1162.45316	789.49468	-737.41224	-1146.55455	700.04646	-747.31617	-1271.81307	404.71977	-709.73627	-1333.67821	365.45649	-657.67860	-1157.94642	352.40723	-740.56633	-1111.89990	370.99181	-687.60301	-1213.09224	637.52547	-409.68476	-1121.40380	739.75145	-448.85525	-1148.72655	628.16849	-463.87769	-1228.04256	731.03104	-762.26365	-1258.84295	612.85142	-757.05442	-1113.15832	1094.48660	-494.13196	-1088.29925	985.81236	-485.49471	-1102.10415	964.15495	-422.29369	-1169.99405	1087.91599	-397.89881	-1151.20664	974.97363	-395.65312	-1163.58508	1114.15227	-762.71911	-1145.75397	972.37259	-769.08512	-1275.12187	1097.92749	-766.84935	-1258.98759	958.79147	-744.31302	-1138.81190	1261.34443	-462.35177	-1328.37807	1303.68352	-538.05067	-1136.30326	1246.02202	-695.96807	-1330.43199	1303.16039	-634.52393	-1201.03070	1769.80476	-604.54736	-1146.35522	1731.47786	-444.88727	-1156.79133	1712.98209	-764.69451	-1112.34513	1654.32745	-588.98909	-1109.65571	1651.89240	-623.11360	-1174.40734	1502.84531	-350.76048	-1252.28944	1415.12956	-365.83330	-1202.96342	1417.75929	-318.25421	-1096.39102	1333.99843	-372.65468	-1028.30772	1284.37817	-433.91771	-1037.90925	1255.72259	-400.72205	-1199.33440	1484.60162	-840.41277	-1259.85342	1383.03009	-797.60088	-1236.97920	1385.69482	-857.17648	-1123.99082	1290.73067	-839.49203	-1045.64289	1227.66959	-795.79981	-1070.96403	1197.46658	-817.38220	-1218.48288	1183.15467	-493.00892	-1229.28388	1183.47008	-683.37242	-1209.80264	1187.78615	-492.67878	-1213.09132	1186.94833	-647.17207	
37	0.36000000	-1154.79516	792.27556	-440.56485	-1186.46414	749.53053	-411.36226	-1265.91264	405.72369	-471.95446	-1324.08735	363.72926	-527.11304	-1149.66421	348.83890	-425.56648	-1104.28658	371.09644	-477.13170	-1161.50679	788.87627	-737.61027	-1145.45528	699.38932	-747.55630	-1271.84086	404.67730	-709.78619	-1333.74152	365.35840	-657.68231	-1157.99751	352.37844	-740.57658	-1112.02051	371.04701	-687.64795	-1211.99754	637.14961	-410.05494	-1119.07504	738.71927	-449.41983	-1147.09047	627.32347	-464.37804	-1226.95437	730.75532	-762.19797	-1258.24653	612.63327	-756.85386	-1114.23902	1094.10071	-493.93480	-1088.05535	985.62821	-485.70238	-1101.56677	963.78299	-422.59631	-1170.87638	1086.66547	-398.26987	-1150.83890	973.92457	-395.98095	-1165.45812	1113.31738	-762.63907	-1146.60640	971.69462	-769.36748	-1276.89877	1096.29811	-766.24218	-1259.61531	957.32544	-743.47067	-1140.17687	1259.24127	-462.52153	-1329.74206	1303.14842	-537.76471	-1138.19564	1243.86352	-696.09265	-1331.97114	1302.64975	-634.17735	-1197.06940	1768.02931	-604.52654	-1141.80199	1729.61701	-445.11439	-1153.28343	1710.78046	-764.11651	-1108.95531	1651.84668	-588.96085	-1108.14405	1649.27494	-623.92505	-1172.38636	1501.72951	-350.07301	-1251.24360	1414.98452	-365.25151	-1201.99252	1417.06984	-317.46571	-1096.38522	1331.44654	-370.90229	-1028.93646	1280.21500	-431.65450	-1039.07965	1252.20746	-398.19194	-1197.56842	1483.04720	-840.57535	-1258.51318	1381.84956	-797.28366	-1236.01112	1384.39730	-856.83760	-1124.19997	1287.76640	-840.60768	-1046.56008	1223.36268	-797.62909	-1072.42485	1193.47856	-819.01168	-1220.60188	1181.71972	-492.94456	-1231.81313	1182.11117	-683.28159	-1211.85168	1186.24826	-492.71275	-1215.42317	1185.44922	-647.17563	
